<svg width="398" height="128" viewBox="0 0 398 128" fill="none" xmlns="http://www.w3.org/2000/svg">
<rect x="0.5" width="128" height="128" rx="4" fill="url(#paint0_linear_3_7)"/>
<path d="M64.5 44C64.5 39.7565 62.8143 35.6869 59.8137 32.6863C56.8131 29.6857 52.7435 28 48.5 28H24.5V88H52.5C55.6826 88 58.7348 89.2643 60.9853 91.5147C63.2357 93.7652 64.5 96.8174 64.5 100M64.5 44V100M64.5 44C64.5 39.7565 66.1857 35.6869 69.1863 32.6863C72.1869 29.6857 76.2565 28 80.5 28H104.5V88H76.5C73.3174 88 70.2652 89.2643 68.0147 91.5147C65.7643 93.7652 64.5 96.8174 64.5 100M40.5 48H48.5M40.5 64H48.5M80.5 48H88.5M80.5 64H88.5" stroke="#FAFAFA" stroke-width="8" stroke-linecap="round" stroke-linejoin="round"/>
<path d="M166.075 90.5V38.1364H186.12C189.904 38.1364 193.049 38.733 195.555 39.9261C198.078 41.1023 199.961 42.7131 201.206 44.7585C202.467 46.804 203.098 49.1222 203.098 51.7131C203.098 53.8438 202.689 55.6676 201.87 57.1847C201.052 58.6847 199.953 59.9034 198.572 60.8409C197.191 61.7784 195.649 62.4517 193.944 62.8608V63.3722C195.802 63.4744 197.583 64.0455 199.288 65.0852C201.01 66.108 202.416 67.5568 203.507 69.4318C204.598 71.3068 205.143 73.5739 205.143 76.233C205.143 78.9432 204.487 81.3807 203.174 83.5455C201.862 85.6932 199.885 87.3892 197.243 88.6335C194.6 89.8778 191.277 90.5 187.271 90.5H166.075ZM175.561 82.5739H185.762C189.206 82.5739 191.686 81.9176 193.203 80.6051C194.737 79.2756 195.504 77.571 195.504 75.4915C195.504 73.9403 195.12 72.5426 194.353 71.2983C193.586 70.0369 192.495 69.0483 191.081 68.3324C189.666 67.5994 187.978 67.233 186.018 67.233H175.561V82.5739ZM175.561 60.4062H184.944C186.581 60.4062 188.055 60.108 189.368 59.5114C190.68 58.8977 191.711 58.0369 192.461 56.929C193.228 55.804 193.612 54.4744 193.612 52.9403C193.612 50.9119 192.896 49.2415 191.464 47.929C190.049 46.6165 187.944 45.9602 185.149 45.9602H175.561V60.4062ZM230.117 91.267C226.282 91.267 222.958 90.4233 220.145 88.7358C217.333 87.0483 215.151 84.6875 213.6 81.6534C212.066 78.6193 211.299 75.0739 211.299 71.017C211.299 66.9602 212.066 63.4062 213.6 60.3551C215.151 57.304 217.333 54.9347 220.145 53.2472C222.958 51.5597 226.282 50.7159 230.117 50.7159C233.952 50.7159 237.276 51.5597 240.088 53.2472C242.901 54.9347 245.074 57.304 246.608 60.3551C248.159 63.4062 248.935 66.9602 248.935 71.017C248.935 75.0739 248.159 78.6193 246.608 81.6534C245.074 84.6875 242.901 87.0483 240.088 88.7358C237.276 90.4233 233.952 91.267 230.117 91.267ZM230.168 83.8523C232.248 83.8523 233.986 83.2812 235.384 82.1392C236.782 80.9801 237.821 79.429 238.503 77.4858C239.202 75.5426 239.551 73.3778 239.551 70.9915C239.551 68.5881 239.202 66.4148 238.503 64.4716C237.821 62.5114 236.782 60.9517 235.384 59.7926C233.986 58.6335 232.248 58.054 230.168 58.054C228.037 58.054 226.265 58.6335 224.85 59.7926C223.452 60.9517 222.404 62.5114 221.705 64.4716C221.023 66.4148 220.682 68.5881 220.682 70.9915C220.682 73.3778 221.023 75.5426 221.705 77.4858C222.404 79.429 223.452 80.9801 224.85 82.1392C226.265 83.2812 228.037 83.8523 230.168 83.8523ZM273.922 91.267C270.086 91.267 266.762 90.4233 263.95 88.7358C261.137 87.0483 258.956 84.6875 257.404 81.6534C255.87 78.6193 255.103 75.0739 255.103 71.017C255.103 66.9602 255.87 63.4062 257.404 60.3551C258.956 57.304 261.137 54.9347 263.95 53.2472C266.762 51.5597 270.086 50.7159 273.922 50.7159C277.757 50.7159 281.081 51.5597 283.893 53.2472C286.706 54.9347 288.879 57.304 290.413 60.3551C291.964 63.4062 292.74 66.9602 292.74 71.017C292.74 75.0739 291.964 78.6193 290.413 81.6534C288.879 84.6875 286.706 87.0483 283.893 88.7358C281.081 90.4233 277.757 91.267 273.922 91.267ZM273.973 83.8523C276.052 83.8523 277.791 83.2812 279.189 82.1392C280.586 80.9801 281.626 79.429 282.308 77.4858C283.007 75.5426 283.356 73.3778 283.356 70.9915C283.356 68.5881 283.007 66.4148 282.308 64.4716C281.626 62.5114 280.586 60.9517 279.189 59.7926C277.791 58.6335 276.052 58.054 273.973 58.054C271.842 58.054 270.069 58.6335 268.654 59.7926C267.257 60.9517 266.208 62.5114 265.51 64.4716C264.828 66.4148 264.487 68.5881 264.487 70.9915C264.487 73.3778 264.828 75.5426 265.51 77.4858C266.208 79.429 267.257 80.9801 268.654 82.1392C270.069 83.2812 271.842 83.8523 273.973 83.8523ZM309.033 78.1761L309.007 67.0028H310.49L324.604 51.2273H335.419L318.059 70.5568H316.141L309.033 78.1761ZM300.596 90.5V38.1364H309.851V90.5H300.596ZM325.243 90.5L312.459 72.6278L318.698 66.108L336.314 90.5H325.243ZM350.843 38.1364V90.5H341.588V38.1364H350.843ZM366.114 105.227C364.853 105.227 363.685 105.125 362.611 104.92C361.554 104.733 360.711 104.511 360.08 104.256L362.228 97.0455C363.574 97.4375 364.776 97.625 365.833 97.608C366.89 97.5909 367.819 97.2585 368.62 96.6108C369.438 95.9801 370.128 94.9233 370.691 93.4403L371.483 91.3182L357.242 51.2273H367.06L376.111 80.8864H376.52L385.597 51.2273H395.441L379.716 95.2557C378.983 97.3352 378.012 99.1165 376.801 100.599C375.591 102.099 374.108 103.241 372.353 104.026C370.614 104.827 368.534 105.227 366.114 105.227Z" fill="#FAFAFA"/>
<defs>
<linearGradient id="paint0_linear_3_7" x1="-3.15369e-07" y1="-3.12924e-07" x2="129" y2="128" gradientUnits="userSpaceOnUse">
<stop stop-color="#00BC7D"/>
<stop offset="1" stop-color="#16A34A"/>
</linearGradient>
</defs>
</svg>
